<svg id="svg" version="1.1" xmlns="http://www.w3.org/2000/svg" xmlns:xlink="http://www.w3.org/1999/xlink" width="400" height="451.8817204301075" viewBox="0, 0, 400,451.8817204301075"><g id="svgg"><path id="path0" d="M181.357 1.229 C 180.491 1.746,179.645 2.195,179.475 2.227 C 179.305 2.259,179.102 2.371,179.023 2.476 C 178.774 2.807,167.086 9.476,166.734 9.487 C 166.549 9.493,166.398 9.596,166.398 9.715 C 166.398 10.021,164.889 10.767,164.685 10.563 C 164.592 10.470,164.516 10.532,164.516 10.701 C 164.516 11.039,162.906 11.968,162.899 11.633 C 162.897 11.519,162.806 11.562,162.697 11.730 C 162.479 12.067,159.803 13.694,159.315 13.786 C 159.146 13.818,158.886 13.978,158.738 14.141 C 158.340 14.579,146.967 21.035,146.573 21.047 C 146.388 21.053,146.237 21.151,146.237 21.265 C 146.237 21.521,143.527 23.009,143.228 22.917 C 143.108 22.880,143.011 22.967,143.011 23.111 C 143.011 23.449,141.519 24.226,141.298 24.004 C 141.205 23.911,141.129 23.973,141.129 24.142 C 141.129 24.511,139.655 25.318,139.416 25.079 C 139.323 24.986,139.247 25.048,139.247 25.217 C 139.247 25.587,137.773 26.393,137.534 26.154 C 137.441 26.061,137.366 26.116,137.366 26.275 C 137.366 26.587,133.954 28.569,133.401 28.579 C 133.216 28.582,133.065 28.677,133.065 28.791 C 133.065 29.048,130.355 30.536,130.056 30.444 C 129.936 30.407,129.839 30.494,129.839 30.638 C 129.839 30.976,128.347 31.752,128.125 31.530 C 128.033 31.438,127.957 31.500,127.957 31.669 C 127.957 31.837,127.594 32.163,127.151 32.392 C 126.707 32.622,126.344 32.723,126.344 32.617 C 126.344 32.511,126.193 32.611,126.008 32.840 C 125.608 33.334,116.144 38.775,115.659 38.789 C 115.474 38.795,115.323 38.889,115.323 38.999 C 115.323 39.239,110.875 41.765,110.602 41.680 C 110.496 41.648,110.332 41.747,110.236 41.901 C 110.003 42.278,95.924 50.356,95.497 50.357 C 95.313 50.358,95.161 50.448,95.161 50.558 C 95.161 50.814,90.577 53.382,90.279 53.293 C 90.155 53.256,90.054 53.333,90.054 53.464 C 90.054 53.707,85.508 56.391,84.884 56.517 C 84.697 56.555,84.478 56.673,84.398 56.778 C 84.146 57.115,68.697 65.934,68.347 65.942 C 68.162 65.946,68.011 66.037,68.011 66.143 C 68.011 66.399,59.668 71.122,59.370 71.035 C 59.243 70.998,59.140 71.077,59.140 71.211 C 59.140 71.495,56.206 73.203,55.712 73.206 C 55.528 73.207,55.376 73.298,55.376 73.407 C 55.376 73.663,50.792 76.232,50.494 76.142 C 50.370 76.106,50.269 76.193,50.269 76.337 C 50.269 76.675,48.778 77.451,48.556 77.229 C 48.463 77.137,48.387 77.180,48.387 77.325 C 48.387 77.642,46.238 78.893,46.232 78.579 C 46.230 78.459,46.133 78.511,46.016 78.695 C 45.749 79.115,38.425 83.418,37.970 83.421 C 37.786 83.422,37.634 83.521,37.634 83.640 C 37.634 83.946,36.126 84.692,35.921 84.487 C 35.829 84.395,35.753 84.457,35.753 84.626 C 35.753 84.995,34.278 85.802,34.039 85.563 C 33.947 85.470,33.871 85.524,33.871 85.682 C 33.871 85.999,30.981 87.719,30.444 87.722 C 30.259 87.723,30.108 87.813,30.108 87.922 C 30.108 88.175,27.128 89.870,26.680 89.873 C 26.495 89.874,26.344 89.961,26.344 90.066 C 26.344 90.315,19.594 94.170,19.153 94.173 C 18.968 94.175,18.817 94.273,18.817 94.393 C 18.817 94.698,17.308 95.445,17.104 95.240 C 17.011 95.148,16.935 95.199,16.935 95.355 C 16.935 95.511,15.877 96.244,14.583 96.985 C 13.290 97.726,10.296 99.450,7.930 100.816 C 5.565 102.182,3.478 103.303,3.293 103.308 C 3.108 103.312,2.957 103.409,2.957 103.523 C 2.957 103.637,2.356 104.057,1.621 104.457 C 0.108 105.281,0.110 105.356,1.683 106.250 C 2.310 106.606,9.476 110.751,17.608 115.461 C 38.702 127.679,48.298 133.228,79.435 151.212 C 86.828 155.482,96.142 160.864,100.134 163.171 C 104.126 165.479,111.868 169.949,117.339 173.104 C 122.809 176.260,131.398 181.229,136.425 184.147 C 141.452 187.065,151.069 192.626,157.796 196.506 C 172.768 205.141,186.458 213.051,190.591 215.454 C 192.292 216.442,195.053 218.040,196.728 219.004 L 199.773 220.756 205.599 217.395 C 208.803 215.546,215.538 211.645,220.565 208.725 C 225.591 205.806,234.664 200.550,240.726 197.044 C 246.788 193.539,255.437 188.519,259.946 185.889 C 264.456 183.260,273.528 177.992,280.108 174.183 C 286.687 170.374,295.336 165.359,299.328 163.039 C 303.320 160.718,310.880 156.336,316.129 153.299 C 321.378 150.263,329.362 145.635,333.871 143.016 C 347.115 135.324,359.807 127.961,372.446 120.637 C 378.952 116.868,387.515 111.905,391.477 109.609 L 398.679 105.435 397.794 104.898 C 396.095 103.869,369.578 88.449,352.151 78.356 C 349.563 76.858,340.612 71.659,332.258 66.804 C 318.193 58.629,314.093 56.248,300.538 48.385 C 267.678 29.325,264.279 27.316,264.440 27.056 C 264.528 26.915,264.460 26.885,264.289 26.990 C 263.895 27.234,262.341 26.333,262.556 25.984 C 262.645 25.841,262.580 25.808,262.411 25.913 C 262.242 26.018,258.127 23.783,253.163 20.888 C 248.245 18.021,239.261 12.798,233.199 9.282 C 227.137 5.765,221.185 2.299,219.973 1.578 C 218.760 0.858,217.702 0.269,217.621 0.269 C 217.539 0.269,217.473 18.411,217.473 40.585 L 217.473 80.902 218.078 81.274 C 218.656 81.631,223.319 84.346,230.242 88.358 C 232.016 89.386,235.464 91.387,237.903 92.804 C 240.343 94.222,244.879 96.857,247.984 98.661 C 251.089 100.465,253.690 102.019,253.763 102.113 C 253.837 102.208,254.045 102.314,254.225 102.349 C 254.405 102.385,255.131 102.760,255.838 103.184 C 256.545 103.608,260.632 105.986,264.919 108.468 C 292.576 124.478,290.860 123.327,290.860 125.869 C 290.860 127.557,288.126 130.185,286.358 130.195 C 286.173 130.196,286.022 130.280,286.022 130.382 C 286.022 130.581,278.206 135.157,277.660 135.277 C 277.478 135.317,277.104 135.566,276.827 135.830 C 276.551 136.094,276.208 136.238,276.065 136.150 C 275.923 136.062,275.806 136.104,275.806 136.243 C 275.806 136.382,274.446 137.273,272.782 138.222 C 271.119 139.171,267.345 141.332,264.396 143.025 C 261.446 144.717,258.936 146.072,258.818 146.035 C 258.699 145.998,258.602 146.066,258.602 146.187 C 258.602 146.505,256.563 147.603,256.357 147.396 C 256.261 147.301,256.183 147.356,256.183 147.519 C 256.183 147.796,253.714 149.299,253.378 149.227 C 253.294 149.208,252.979 149.440,252.678 149.741 C 252.377 150.042,252.025 150.223,251.895 150.143 C 251.765 150.062,251.618 150.106,251.569 150.240 C 251.472 150.503,245.556 154.020,245.058 154.111 C 244.893 154.142,244.698 154.244,244.624 154.338 C 244.366 154.665,241.530 156.262,241.196 156.267 C 241.011 156.270,240.860 156.366,240.860 156.480 C 240.860 156.736,238.150 158.224,237.851 158.132 C 237.732 158.095,237.634 158.182,237.634 158.326 C 237.634 158.470,237.272 158.776,236.828 159.005 C 236.384 159.235,236.022 159.354,236.022 159.271 C 236.022 159.187,235.757 159.365,235.433 159.667 C 235.110 159.968,234.747 160.215,234.627 160.215 C 234.507 160.215,234.348 160.215,234.274 160.215 C 234.200 160.215,233.893 160.461,233.592 160.762 C 233.291 161.064,232.928 161.238,232.786 161.150 C 232.643 161.062,232.527 161.115,232.527 161.268 C 232.527 161.420,232.164 161.733,231.720 161.962 C 231.277 162.192,230.914 162.316,230.914 162.238 C 230.914 162.160,230.668 162.343,230.367 162.644 C 230.065 162.945,229.703 163.120,229.560 163.032 C 229.418 162.944,229.301 162.977,229.301 163.107 C 229.301 163.236,228.787 163.626,228.159 163.973 C 227.530 164.321,225.148 165.694,222.864 167.025 C 220.581 168.356,218.554 169.444,218.361 169.444 C 218.169 169.444,218.011 169.529,218.011 169.632 C 218.011 169.881,213.670 172.399,213.239 172.401 C 213.054 172.401,212.903 172.491,212.903 172.601 C 212.903 172.857,208.319 175.425,208.021 175.336 C 207.897 175.299,207.796 175.387,207.796 175.531 C 207.796 175.840,206.185 176.724,206.179 176.418 C 206.176 176.304,206.084 176.353,205.972 176.528 C 204.923 178.178,201.058 179.296,198.717 178.627 C 197.202 178.194,189.516 174.056,189.516 173.673 C 189.516 173.565,189.365 173.473,189.180 173.467 C 188.723 173.455,183.065 170.168,183.065 169.915 C 183.065 169.804,182.908 169.713,182.718 169.713 C 182.381 169.713,172.581 164.096,172.312 163.749 C 172.238 163.653,172.020 163.543,171.827 163.503 C 171.193 163.373,167.204 160.955,167.204 160.701 C 167.204 160.564,167.088 160.524,166.945 160.612 C 166.803 160.700,166.460 160.556,166.184 160.292 C 165.907 160.028,165.527 159.777,165.340 159.735 C 164.707 159.594,158.871 156.114,158.871 155.878 C 158.871 155.750,158.770 155.675,158.646 155.712 C 158.284 155.820,153.763 153.205,153.763 152.887 C 153.763 152.729,153.688 152.674,153.595 152.767 C 153.390 152.972,151.882 152.225,151.882 151.920 C 151.882 151.800,151.731 151.699,151.546 151.694 C 151.008 151.680,145.430 148.345,145.430 148.038 C 145.430 147.885,145.354 147.836,145.262 147.928 C 145.057 148.133,143.548 147.387,143.548 147.081 C 143.548 146.961,143.393 146.864,143.202 146.864 C 142.672 146.864,140.323 145.417,140.323 145.091 C 140.323 144.933,140.245 144.880,140.150 144.975 C 139.944 145.182,138.441 144.335,138.441 144.012 C 138.441 143.888,138.341 143.847,138.220 143.922 C 138.020 144.046,135.001 142.384,134.677 141.972 C 134.603 141.878,134.372 141.764,134.162 141.719 C 133.506 141.577,131.452 140.284,131.452 140.012 C 131.452 139.870,131.335 139.825,131.193 139.913 C 131.050 140.001,130.687 139.827,130.386 139.526 C 130.085 139.225,129.839 139.042,129.839 139.120 C 129.839 139.198,129.476 139.073,129.032 138.844 C 128.589 138.615,128.226 138.329,128.226 138.210 C 128.226 138.091,128.074 137.993,127.888 137.993 C 127.441 137.993,123.118 135.494,123.118 135.236 C 123.118 135.126,122.967 135.035,122.782 135.034 C 122.201 135.030,111.459 128.728,110.722 127.959 C 108.660 125.804,109.592 123.585,113.520 121.294 C 115.084 120.381,116.512 119.602,116.694 119.562 C 116.876 119.522,117.251 119.273,117.528 119.009 C 117.804 118.745,118.147 118.601,118.289 118.689 C 118.432 118.777,118.548 118.723,118.548 118.569 C 118.548 118.304,121.037 116.898,121.406 116.955 C 121.502 116.969,121.654 116.864,121.744 116.720 C 121.975 116.354,124.794 114.707,125.202 114.701 C 125.386 114.698,125.538 114.607,125.538 114.500 C 125.538 114.260,131.869 110.652,132.139 110.737 C 132.245 110.771,132.406 110.682,132.497 110.539 C 132.708 110.206,136.565 107.867,137.097 107.750 C 137.319 107.701,137.560 107.588,137.634 107.498 C 137.841 107.247,141.183 105.266,148.253 101.204 C 151.801 99.165,154.956 97.334,155.263 97.134 C 155.571 96.935,155.904 96.853,156.003 96.952 C 156.102 97.052,156.183 96.994,156.183 96.824 C 156.183 96.655,156.683 96.261,157.294 95.950 C 157.904 95.638,160.112 94.388,162.199 93.172 C 164.287 91.957,167.749 89.950,169.892 88.713 C 172.036 87.477,175.094 85.699,176.688 84.762 C 178.281 83.826,179.733 83.030,179.914 82.995 C 180.094 82.959,180.319 82.824,180.414 82.694 C 180.508 82.564,181.173 82.140,181.892 81.752 L 183.199 81.046 183.267 40.658 C 183.304 18.444,183.244 0.273,183.133 0.279 C 183.021 0.284,182.222 0.712,181.357 1.229 " stroke="none" fill="#838383" fill-rule="evenodd"></path><path id="path1" d="M259.409 24.314 C 259.409 24.388,259.772 24.636,260.215 24.866 C 260.659 25.095,261.022 25.222,261.022 25.148 C 261.022 25.074,260.659 24.826,260.215 24.597 C 259.772 24.367,259.409 24.240,259.409 24.314 M262.634 26.196 C 262.634 26.270,262.997 26.518,263.441 26.747 C 263.884 26.977,264.247 27.104,264.247 27.030 C 264.247 26.956,263.884 26.708,263.441 26.478 C 262.997 26.249,262.634 26.122,262.634 26.196 M268.414 29.490 C 268.562 29.642,269.288 30.106,270.027 30.519 C 270.766 30.933,271.250 31.146,271.102 30.994 C 270.954 30.841,270.228 30.378,269.489 29.965 C 268.750 29.551,268.266 29.337,268.414 29.490 M271.505 31.270 C 271.505 31.346,272.745 32.122,274.261 32.994 C 275.776 33.867,282.702 37.885,289.651 41.924 C 296.599 45.963,305.309 51.022,309.005 53.166 C 312.702 55.310,317.540 58.120,319.758 59.410 C 321.976 60.699,330.202 65.473,338.038 70.018 C 345.874 74.563,354.825 79.767,357.930 81.582 C 361.035 83.397,368.172 87.544,373.790 90.796 C 379.409 94.049,387.332 98.648,391.398 101.015 L 398.790 105.319 398.925 210.653 C 399.052 310.697,399.083 315.992,399.530 316.078 C 399.977 316.164,400.000 311.006,400.000 210.788 L 400.000 105.408 397.513 103.945 C 394.296 102.053,391.112 100.213,375.000 90.935 C 367.681 86.720,360.302 82.451,358.602 81.449 C 356.902 80.447,348.858 75.787,340.726 71.094 C 332.594 66.400,324.368 61.650,322.446 60.537 C 320.524 59.425,316.532 57.126,313.575 55.430 C 310.618 53.734,306.808 51.536,305.108 50.548 C 303.407 49.559,300.323 47.774,298.253 46.582 C 295.193 44.819,277.157 34.402,272.648 31.793 C 272.019 31.429,271.505 31.194,271.505 31.270 M-0.000 210.744 L -0.000 316.155 1.815 315.151 C 2.812 314.599,4.052 313.886,4.570 313.568 C 5.087 313.249,6.055 312.685,6.720 312.313 C 7.386 311.941,9.019 311.001,10.349 310.223 C 11.680 309.446,13.978 308.110,15.457 307.255 C 16.935 306.399,21.774 303.591,26.210 301.015 C 30.645 298.439,38.569 293.841,43.817 290.799 C 49.066 287.756,56.989 283.160,61.425 280.586 L 69.489 275.905 69.624 233.940 L 69.758 191.975 70.320 191.216 C 71.604 189.484,73.818 188.614,75.187 189.304 C 75.891 189.659,85.996 195.463,91.129 198.461 C 92.386 199.195,95.773 201.156,98.656 202.819 C 101.539 204.482,109.946 209.347,117.339 213.630 C 124.731 217.913,132.413 222.360,134.409 223.511 C 136.405 224.662,139.550 226.484,141.398 227.560 C 143.246 228.636,148.266 231.539,152.554 234.011 C 157.033 236.593,160.835 238.972,161.491 239.603 C 163.768 241.794,163.575 236.837,163.575 293.145 C 163.575 349.805,163.804 344.271,161.410 345.627 C 159.284 346.831,158.913 346.702,150.632 341.852 C 143.726 337.808,137.795 334.363,125.538 327.277 C 122.950 325.781,119.200 323.609,117.204 322.450 C 113.115 320.076,109.114 317.758,102.823 314.120 C 98.769 311.776,95.547 309.904,89.463 306.358 C 86.266 304.494,86.915 304.442,82.701 306.902 C 74.912 311.450,72.836 312.657,69.355 314.655 C 67.359 315.801,62.762 318.460,59.140 320.565 C 43.631 329.577,34.191 335.051,29.032 338.026 C 26.001 339.774,22.977 341.532,22.312 341.932 C 21.647 342.333,20.115 343.229,18.908 343.923 L 16.714 345.184 17.381 345.851 C 17.748 346.218,20.731 348.066,24.010 349.959 C 30.391 353.641,43.037 360.953,50.941 365.530 C 53.602 367.071,58.985 370.175,62.903 372.428 C 76.975 380.520,107.599 398.280,118.548 404.700 C 121.875 406.651,127.379 409.856,130.780 411.822 C 134.180 413.789,138.233 416.152,139.785 417.073 C 141.337 417.993,145.692 420.536,149.462 422.722 C 155.862 426.434,159.561 428.591,167.204 433.067 C 168.905 434.063,175.134 437.687,181.048 441.121 C 193.932 448.602,196.530 450.123,198.118 451.116 C 199.075 451.714,199.346 451.789,199.415 451.474 C 199.490 451.128,199.555 451.130,199.917 451.492 C 200.146 451.720,200.349 451.871,200.368 451.827 C 200.755 450.949,200.187 220.921,199.797 220.779 C 199.276 220.589,197.936 219.823,180.376 209.674 C 173.649 205.786,164.577 200.550,160.215 198.037 C 155.853 195.524,146.297 189.996,138.978 185.751 C 131.660 181.506,123.918 177.031,121.774 175.806 C 119.630 174.580,109.892 168.958,100.134 163.311 C 90.376 157.664,76.042 149.379,68.280 144.899 C 60.517 140.419,51.626 135.275,48.522 133.468 C 45.417 131.662,36.223 126.339,28.091 121.641 C 11.790 112.222,2.211 106.669,0.874 105.860 L 0.000 105.332 -0.000 210.744 " stroke="none" fill="#4c4c4c" fill-rule="evenodd"></path><path id="path2" d="M391.935 109.518 C 388.313 111.632,378.817 117.147,370.833 121.773 C 362.849 126.398,353.051 132.083,349.059 134.404 C 345.067 136.726,337.204 141.289,331.586 144.545 C 325.968 147.800,317.863 152.500,313.575 154.990 C 309.288 157.479,303.239 160.984,300.134 162.778 C 292.673 167.089,278.347 175.404,264.247 183.607 C 257.964 187.263,248.226 192.914,242.608 196.164 C 234.014 201.137,226.709 205.372,208.065 216.193 C 206.808 216.923,204.486 218.262,202.905 219.170 C 201.323 220.077,200.144 220.890,200.283 220.977 C 200.442 221.075,200.562 264.333,200.605 335.960 L 200.672 450.787 202.688 449.619 C 203.797 448.977,207.849 446.637,211.694 444.419 C 215.538 442.202,221.042 439.022,223.925 437.354 C 226.808 435.686,229.318 434.321,229.503 434.320 C 229.687 434.320,229.839 434.230,229.839 434.121 C 229.839 433.868,232.818 432.173,233.266 432.170 C 233.451 432.169,233.602 432.079,233.602 431.969 C 233.602 431.713,238.186 429.145,238.485 429.234 C 238.608 429.271,238.710 429.190,238.710 429.055 C 238.710 428.920,239.224 428.519,239.852 428.164 C 240.481 427.809,242.743 426.508,244.880 425.274 C 247.017 424.039,248.922 423.029,249.114 423.029 C 249.305 423.029,249.462 422.938,249.462 422.828 C 249.462 422.619,253.126 420.430,253.618 420.344 C 253.772 420.318,253.958 420.219,254.032 420.125 C 254.290 419.797,257.126 418.200,257.460 418.195 C 257.644 418.192,257.796 418.105,257.796 418.002 C 257.796 417.753,262.136 415.235,262.567 415.234 C 262.752 415.233,262.903 415.135,262.903 415.016 C 262.903 414.896,263.266 414.611,263.710 414.382 C 264.153 414.152,264.516 414.051,264.516 414.157 C 264.516 414.263,264.667 414.163,264.852 413.934 C 265.268 413.418,277.943 406.093,278.419 406.093 C 278.608 406.093,278.763 406.003,278.763 405.893 C 278.763 405.635,283.086 403.136,283.533 403.136 C 283.719 403.136,283.871 403.047,283.871 402.938 C 283.871 402.685,286.850 400.990,287.298 400.988 C 287.483 400.987,287.634 400.896,287.634 400.787 C 287.634 400.678,288.269 400.227,289.046 399.785 C 289.822 399.343,292.816 397.621,295.699 395.958 C 298.582 394.296,301.092 392.933,301.277 392.929 C 301.462 392.925,301.613 392.832,301.613 392.723 C 301.613 392.462,304.046 391.039,304.493 391.039 C 304.683 391.039,304.839 390.952,304.839 390.846 C 304.839 390.635,309.452 387.950,310.007 387.838 C 310.194 387.800,310.469 387.635,310.617 387.472 C 311.031 387.018,325.088 378.947,325.470 378.945 C 325.655 378.944,325.806 378.845,325.806 378.726 C 325.806 378.420,327.315 377.674,327.520 377.878 C 327.612 377.971,327.688 377.913,327.688 377.750 C 327.688 377.430,330.337 375.897,330.697 376.008 C 330.816 376.045,330.914 375.966,330.914 375.832 C 330.914 375.548,333.848 373.840,334.341 373.837 C 334.526 373.836,334.677 373.746,334.677 373.637 C 334.677 373.384,337.657 371.689,338.105 371.687 C 338.290 371.685,338.441 371.599,338.441 371.494 C 338.441 371.261,344.376 367.841,344.564 367.967 C 344.638 368.016,344.775 367.932,344.869 367.780 C 345.100 367.406,351.122 363.903,351.546 363.895 C 351.731 363.892,351.882 363.800,351.882 363.691 C 351.882 363.438,354.861 361.743,355.309 361.740 C 355.494 361.739,355.645 361.645,355.645 361.531 C 355.645 361.274,358.355 359.786,358.654 359.879 C 358.773 359.916,358.871 359.828,358.871 359.684 C 358.871 359.347,360.362 358.570,360.584 358.792 C 360.677 358.885,360.753 358.831,360.753 358.673 C 360.753 358.356,363.643 356.636,364.180 356.633 C 364.365 356.632,364.516 356.546,364.516 356.443 C 364.516 356.194,368.856 353.676,369.288 353.675 C 369.472 353.674,369.624 353.581,369.624 353.467 C 369.624 353.252,372.158 351.790,372.428 351.849 C 372.512 351.867,372.827 351.635,373.128 351.334 C 373.429 351.033,373.792 350.859,373.935 350.947 C 374.077 351.035,374.194 351.001,374.194 350.872 C 374.194 350.543,376.226 349.434,376.439 349.647 C 376.535 349.742,376.613 349.691,376.613 349.533 C 376.613 349.374,377.753 348.603,379.148 347.818 C 380.542 347.034,381.634 346.314,381.574 346.218 C 381.515 346.122,379.830 345.106,377.830 343.961 C 375.830 342.815,374.194 341.770,374.194 341.638 C 374.194 341.506,374.099 341.428,373.984 341.465 C 373.760 341.537,363.591 335.774,362.881 335.173 C 362.647 334.974,362.329 334.787,362.175 334.756 C 361.791 334.679,358.717 332.866,358.275 332.456 C 358.078 332.273,357.774 332.095,357.599 332.060 C 357.204 331.982,346.720 325.869,346.518 325.600 C 346.437 325.492,346.243 325.381,346.087 325.353 C 345.594 325.267,338.710 321.191,338.710 320.985 C 338.710 320.877,338.558 320.787,338.374 320.784 C 338.039 320.780,333.858 318.386,333.602 318.052 C 333.528 317.955,333.301 317.841,333.096 317.797 C 332.892 317.754,329.868 316.051,326.376 314.014 C 322.884 311.976,319.331 309.916,318.481 309.436 C 317.631 308.956,316.935 308.471,316.935 308.358 C 316.935 308.246,316.784 308.150,316.599 308.146 C 316.415 308.141,315.384 307.625,314.310 307.000 L 312.357 305.862 309.606 307.415 C 308.093 308.270,306.094 309.432,305.164 309.998 C 304.235 310.565,303.327 311.057,303.148 311.092 C 302.969 311.127,302.759 311.240,302.682 311.342 C 302.605 311.444,300.306 312.818,297.574 314.395 C 294.843 315.971,290.672 318.378,288.306 319.743 C 285.941 321.109,281.949 323.414,279.435 324.865 C 276.922 326.317,274.714 327.506,274.530 327.507 C 274.345 327.508,274.194 327.603,274.194 327.717 C 274.194 327.972,269.890 330.442,269.422 330.456 C 269.237 330.461,269.086 330.555,269.086 330.663 C 269.086 330.919,267.173 332.065,266.734 332.073 C 266.549 332.076,266.398 332.187,266.398 332.319 C 266.398 332.451,266.277 332.484,266.129 332.392 C 265.981 332.301,265.860 332.339,265.860 332.476 C 265.860 332.763,260.251 336.089,259.745 336.102 C 259.560 336.107,259.409 336.209,259.409 336.328 C 259.409 336.608,257.797 337.448,257.792 337.171 C 257.789 337.056,257.699 337.100,257.590 337.268 C 257.330 337.670,254.531 339.325,254.099 339.332 C 253.915 339.335,253.763 339.428,253.763 339.540 C 253.763 339.737,246.345 344.086,245.856 344.176 C 245.720 344.200,245.418 344.384,245.184 344.584 C 241.049 348.114,237.003 348.669,235.736 345.880 C 235.160 344.611,234.900 244.312,235.472 243.959 C 235.614 243.871,235.667 243.638,235.591 243.440 C 235.515 243.242,235.636 242.897,235.859 242.674 C 236.082 242.451,236.190 242.193,236.098 242.102 C 236.007 242.010,236.080 241.935,236.261 241.935 C 236.443 241.935,236.525 241.828,236.444 241.698 C 235.988 240.960,244.628 234.888,246.169 234.862 C 246.354 234.859,246.505 234.777,246.505 234.681 C 246.505 234.584,247.443 233.973,248.589 233.322 C 249.735 232.672,251.204 231.808,251.854 231.401 C 252.504 230.995,253.139 230.726,253.265 230.804 C 253.391 230.882,253.495 230.827,253.495 230.681 C 253.495 230.536,254.130 230.066,254.906 229.638 C 255.682 229.209,259.099 227.249,262.500 225.282 C 265.901 223.315,268.834 221.701,269.019 221.695 C 269.204 221.689,269.355 221.587,269.355 221.467 C 269.355 221.162,270.864 220.416,271.068 220.620 C 271.161 220.713,271.237 220.651,271.237 220.482 C 271.237 220.112,272.711 219.306,272.950 219.545 C 273.042 219.637,273.118 219.584,273.118 219.425 C 273.118 219.099,275.468 217.652,275.998 217.652 C 276.188 217.652,276.344 217.569,276.344 217.468 C 276.344 217.261,284.178 212.686,284.727 212.573 C 284.921 212.533,285.200 212.367,285.348 212.204 C 285.755 211.757,296.051 205.842,296.438 205.832 C 296.623 205.828,296.774 205.746,296.774 205.651 C 296.774 205.462,299.816 203.696,300.180 203.673 C 300.303 203.665,300.638 203.441,300.924 203.174 C 301.395 202.735,301.554 202.666,302.026 202.698 C 302.105 202.703,302.345 202.532,302.559 202.318 C 302.773 202.104,304.372 201.112,306.111 200.114 C 307.851 199.115,310.242 197.723,311.425 197.021 C 312.608 196.318,313.758 195.703,313.979 195.654 C 314.201 195.605,314.442 195.488,314.516 195.393 C 314.840 194.982,317.858 193.320,318.058 193.443 C 318.180 193.519,318.280 193.463,318.280 193.321 C 318.280 192.668,324.575 189.403,325.856 189.392 C 327.366 189.380,328.620 190.383,329.019 191.923 C 329.165 192.484,329.258 209.951,329.246 234.414 C 329.227 273.851,329.277 277.364,329.848 277.010 C 329.980 276.929,330.324 277.098,330.613 277.387 C 330.902 277.676,331.209 277.842,331.295 277.755 C 331.381 277.669,331.452 277.760,331.452 277.957 C 331.452 278.154,331.522 278.245,331.609 278.158 C 331.695 278.072,331.967 278.174,332.214 278.384 C 332.460 278.595,332.769 278.757,332.900 278.743 C 333.031 278.729,333.213 278.827,333.303 278.960 C 333.394 279.094,334.194 279.638,335.081 280.169 C 336.940 281.283,347.766 287.572,349.247 288.399 C 350.243 288.955,363.822 296.857,369.624 300.257 C 376.133 304.071,379.209 305.864,380.376 306.523 C 381.042 306.899,384.126 308.688,387.231 310.499 C 396.665 316.002,397.420 316.438,398.185 316.835 L 398.925 317.218 398.925 211.432 C 398.925 153.249,398.834 105.652,398.723 105.660 C 398.612 105.668,395.558 107.405,391.935 109.518 " stroke="none" fill="#040404" fill-rule="evenodd"></path><path id="path3" d="M325.336 189.433 C 325.595 189.500,326.018 189.500,326.277 189.433 C 326.536 189.365,326.324 189.310,325.806 189.310 C 325.289 189.310,325.077 189.365,325.336 189.433 M323.317 190.154 C 321.778 191.101,321.732 191.325,323.253 190.465 C 324.799 189.592,324.910 189.513,324.574 189.525 C 324.439 189.529,323.873 189.813,323.317 190.154 M327.383 189.951 C 327.724 190.190,328.234 190.764,328.517 191.228 C 328.799 191.691,329.031 191.923,329.031 191.743 C 329.033 191.310,327.447 189.516,327.063 189.516 C 326.897 189.516,327.041 189.712,327.383 189.951 M320.363 191.820 C 319.358 192.366,319.419 192.593,320.430 192.070 C 320.874 191.841,321.237 191.595,321.237 191.525 C 321.237 191.352,321.208 191.362,320.363 191.820 M317.137 193.702 C 316.132 194.247,316.193 194.474,317.204 193.952 C 317.648 193.722,318.011 193.477,318.011 193.407 C 318.011 193.234,317.982 193.244,317.137 193.702 M313.374 195.853 C 312.369 196.398,312.430 196.625,313.441 196.102 C 313.884 195.873,314.247 195.628,314.247 195.558 C 314.247 195.385,314.218 195.394,313.374 195.853 M308.266 198.810 C 307.261 199.355,307.322 199.582,308.333 199.059 C 308.777 198.830,309.140 198.585,309.140 198.515 C 309.140 198.342,309.111 198.351,308.266 198.810 M306.384 199.885 C 305.379 200.430,305.441 200.657,306.452 200.134 C 306.895 199.905,307.258 199.660,307.258 199.590 C 307.258 199.417,307.229 199.427,306.384 199.885 M298.051 204.724 C 297.046 205.269,297.107 205.496,298.118 204.973 C 298.562 204.744,298.925 204.499,298.925 204.429 C 298.925 204.256,298.896 204.265,298.051 204.724 M289.180 209.831 C 288.175 210.376,288.236 210.603,289.247 210.081 C 289.691 209.851,290.054 209.606,290.054 209.536 C 290.054 209.363,290.025 209.373,289.180 209.831 M285.954 211.713 C 284.949 212.258,285.011 212.485,286.022 211.962 C 286.465 211.733,286.828 211.488,286.828 211.418 C 286.828 211.245,286.799 211.255,285.954 211.713 M284.073 212.788 C 283.068 213.333,283.129 213.560,284.140 213.038 C 284.583 212.808,284.946 212.563,284.946 212.493 C 284.946 212.320,284.917 212.330,284.073 212.788 M282.191 213.863 C 281.186 214.409,281.247 214.636,282.258 214.113 C 282.702 213.884,283.065 213.638,283.065 213.568 C 283.065 213.395,283.036 213.405,282.191 213.863 M277.083 216.820 C 276.078 217.366,276.140 217.593,277.151 217.070 C 277.594 216.841,277.957 216.595,277.957 216.525 C 277.957 216.352,277.928 216.362,277.083 216.820 M274.530 218.308 C 273.753 218.760,273.118 219.192,273.118 219.268 C 273.118 219.417,275.509 218.088,275.927 217.706 C 276.383 217.290,275.969 217.468,274.530 218.308 M271.976 219.777 C 270.971 220.323,271.032 220.550,272.043 220.027 C 272.487 219.798,272.849 219.552,272.849 219.482 C 272.849 219.309,272.821 219.319,271.976 219.777 M270.094 220.853 C 269.089 221.398,269.150 221.625,270.161 221.102 C 270.605 220.873,270.968 220.628,270.968 220.558 C 270.968 220.385,270.939 220.394,270.094 220.853 M200.336 335.954 C 200.299 399.271,200.367 451.075,200.486 451.075 C 200.606 451.075,200.939 450.887,201.226 450.657 C 201.727 450.256,201.723 450.251,201.143 450.532 L 200.538 450.825 200.470 335.829 L 200.403 220.833 200.336 335.954 M266.868 222.734 C 265.863 223.280,265.924 223.507,266.935 222.984 C 267.379 222.755,267.742 222.509,267.742 222.439 C 267.742 222.266,267.713 222.276,266.868 222.734 M263.105 224.885 C 262.100 225.430,262.161 225.657,263.172 225.134 C 263.616 224.905,263.978 224.660,263.978 224.590 C 263.978 224.417,263.950 224.427,263.105 224.885 M261.223 225.960 C 260.218 226.505,260.279 226.732,261.290 226.210 C 261.734 225.980,262.097 225.735,262.097 225.665 C 262.097 225.492,262.068 225.502,261.223 225.960 M258.669 227.447 C 257.893 227.900,257.258 228.332,257.258 228.408 C 257.258 228.557,259.649 227.228,260.067 226.846 C 260.523 226.430,260.109 226.608,258.669 227.447 M254.503 229.857 C 253.948 230.150,253.495 230.449,253.495 230.523 C 253.495 230.596,253.978 230.409,254.570 230.108 C 255.161 229.806,255.645 229.501,255.645 229.430 C 255.645 229.254,255.643 229.255,254.503 229.857 M251.949 231.335 C 251.321 231.712,250.806 232.083,250.806 232.161 C 250.806 232.306,252.620 231.276,253.078 230.871 C 253.540 230.462,253.110 230.639,251.949 231.335 M249.395 232.814 C 248.841 233.107,248.387 233.406,248.387 233.480 C 248.387 233.553,248.871 233.366,249.462 233.065 C 250.054 232.763,250.538 232.458,250.538 232.387 C 250.538 232.211,250.536 232.212,249.395 232.814 M237.871 239.806 L 236.694 240.902 237.970 239.883 C 238.673 239.323,239.247 238.830,239.247 238.787 C 239.247 238.580,238.954 238.797,237.871 239.806 M311.678 306.063 C 311.178 306.463,311.182 306.469,311.770 306.183 C 312.286 305.933,312.619 306.020,313.853 306.726 C 314.661 307.188,315.323 307.506,315.323 307.432 C 315.323 307.298,312.542 305.645,312.317 305.645 C 312.252 305.645,311.965 305.833,311.678 306.063 M309.610 307.143 C 308.605 307.688,308.666 307.915,309.677 307.392 C 310.121 307.163,310.484 306.918,310.484 306.848 C 310.484 306.675,310.455 306.685,309.610 307.143 M307.728 308.218 C 306.724 308.763,306.785 308.991,307.796 308.468 C 308.239 308.238,308.602 307.993,308.602 307.923 C 308.602 307.750,308.573 307.760,307.728 308.218 M317.070 308.532 C 317.218 308.686,318.065 309.208,318.952 309.691 C 319.839 310.175,320.444 310.449,320.296 310.299 C 320.148 310.149,319.301 309.628,318.414 309.140 C 317.527 308.652,316.922 308.378,317.070 308.532 M322.043 311.411 C 322.043 311.485,322.406 311.733,322.849 311.962 C 323.293 312.192,323.656 312.319,323.656 312.245 C 323.656 312.171,323.293 311.923,322.849 311.694 C 322.406 311.464,322.043 311.337,322.043 311.411 M301.277 311.982 C 300.272 312.527,300.333 312.754,301.344 312.231 C 301.788 312.002,302.151 311.757,302.151 311.687 C 302.151 311.514,302.122 311.523,301.277 311.982 M298.723 313.469 C 297.947 313.921,297.312 314.354,297.312 314.429 C 297.312 314.579,299.703 313.249,300.121 312.867 C 300.577 312.452,300.163 312.630,298.723 313.469 M326.613 314.099 C 326.613 314.173,326.976 314.421,327.419 314.651 C 327.863 314.880,328.226 315.007,328.226 314.933 C 328.226 314.859,327.863 314.611,327.419 314.382 C 326.976 314.152,326.613 314.025,326.613 314.099 M296.169 314.939 C 295.164 315.484,295.226 315.711,296.237 315.188 C 296.680 314.959,297.043 314.714,297.043 314.644 C 297.043 314.471,297.014 314.480,296.169 314.939 M328.495 315.174 C 328.495 315.248,328.858 315.496,329.301 315.726 C 329.745 315.955,330.108 316.082,330.108 316.008 C 330.108 315.935,329.745 315.686,329.301 315.457 C 328.858 315.228,328.495 315.100,328.495 315.174 M291.734 317.501 C 290.958 317.954,290.323 318.386,290.323 318.462 C 290.323 318.611,292.713 317.282,293.132 316.900 C 293.587 316.484,293.173 316.662,291.734 317.501 M331.720 317.056 C 331.720 317.130,332.083 317.378,332.527 317.608 C 332.970 317.837,333.333 317.964,333.333 317.890 C 333.333 317.816,332.970 317.568,332.527 317.339 C 332.083 317.109,331.720 316.982,331.720 317.056 M287.500 319.931 C 286.169 320.683,284.960 321.423,284.812 321.576 C 284.664 321.729,285.269 321.454,286.156 320.965 C 288.949 319.424,290.054 318.770,290.054 318.657 C 290.054 318.488,290.059 318.485,287.500 319.931 M283.264 322.412 C 281.972 323.206,281.612 323.581,282.661 323.039 C 283.504 322.603,284.641 321.791,284.409 321.791 C 284.335 321.791,283.819 322.071,283.264 322.412 M340.054 321.895 C 340.054 321.969,340.417 322.217,340.860 322.446 C 341.304 322.676,341.667 322.803,341.667 322.729 C 341.667 322.655,341.304 322.407,340.860 322.177 C 340.417 321.948,340.054 321.821,340.054 321.895 M280.309 324.078 C 279.304 324.624,279.365 324.851,280.376 324.328 C 280.820 324.099,281.183 323.854,281.183 323.783 C 281.183 323.610,281.154 323.620,280.309 324.078 M343.280 323.777 C 343.280 323.850,343.642 324.099,344.086 324.328 C 344.530 324.557,344.892 324.685,344.892 324.611 C 344.892 324.537,344.530 324.289,344.086 324.059 C 343.642 323.830,343.280 323.703,343.280 323.777 M277.083 325.960 C 276.078 326.505,276.140 326.732,277.151 326.210 C 277.594 325.980,277.957 325.735,277.957 325.665 C 277.957 325.492,277.928 325.502,277.083 325.960 M346.505 325.658 C 346.505 325.732,346.868 325.980,347.312 326.210 C 347.755 326.439,348.118 326.566,348.118 326.492 C 348.118 326.418,347.755 326.170,347.312 325.941 C 346.868 325.711,346.505 325.584,346.505 325.658 M275.202 327.035 C 274.197 327.581,274.258 327.808,275.269 327.285 C 275.712 327.056,276.075 326.811,276.075 326.740 C 276.075 326.567,276.046 326.577,275.202 327.035 M348.387 326.734 C 348.387 326.807,348.750 327.056,349.194 327.285 C 349.637 327.514,350.000 327.641,350.000 327.568 C 350.000 327.494,349.637 327.245,349.194 327.016 C 348.750 326.787,348.387 326.660,348.387 326.734 M271.976 328.917 C 270.971 329.462,271.032 329.689,272.043 329.167 C 272.487 328.937,272.849 328.692,272.849 328.622 C 272.849 328.449,272.821 328.459,271.976 328.917 M351.613 328.615 C 351.613 328.689,351.976 328.937,352.419 329.167 C 352.863 329.396,353.226 329.523,353.226 329.449 C 353.226 329.375,352.863 329.127,352.419 328.898 C 351.976 328.668,351.613 328.541,351.613 328.615 M356.183 331.303 C 356.183 331.377,356.546 331.625,356.989 331.855 C 357.433 332.084,357.796 332.211,357.796 332.137 C 357.796 332.064,357.433 331.815,356.989 331.586 C 356.546 331.357,356.183 331.229,356.183 331.303 M264.987 332.949 C 263.982 333.495,264.043 333.722,265.054 333.199 C 265.497 332.970,265.860 332.725,265.860 332.654 C 265.860 332.481,265.831 332.491,264.987 332.949 M359.409 333.185 C 359.409 333.259,359.772 333.507,360.215 333.737 C 360.659 333.966,361.022 334.093,361.022 334.019 C 361.022 333.945,360.659 333.697,360.215 333.468 C 359.772 333.238,359.409 333.111,359.409 333.185 M362.634 335.070 C 362.634 335.144,363.118 335.451,363.710 335.753 C 364.301 336.054,364.785 336.241,364.785 336.167 C 364.785 336.093,364.301 335.786,363.710 335.484 C 363.118 335.182,362.634 334.996,362.634 335.070 M258.535 336.713 C 257.530 337.258,257.591 337.485,258.602 336.962 C 259.046 336.733,259.409 336.488,259.409 336.418 C 259.409 336.245,259.380 336.255,258.535 336.713 M365.054 336.411 C 365.054 336.485,365.417 336.733,365.860 336.962 C 366.304 337.192,366.667 337.319,366.667 337.245 C 366.667 337.171,366.304 336.923,365.860 336.694 C 365.417 336.464,365.054 336.337,365.054 336.411 M256.116 338.057 C 255.111 338.602,255.172 338.829,256.183 338.306 C 256.626 338.077,256.989 337.832,256.989 337.762 C 256.989 337.589,256.960 337.599,256.116 338.057 M368.280 338.293 C 368.280 338.367,368.642 338.615,369.086 338.844 C 369.530 339.073,369.892 339.201,369.892 339.127 C 369.892 339.053,369.530 338.805,369.086 338.575 C 368.642 338.346,368.280 338.219,368.280 338.293 M371.505 340.174 C 371.505 340.248,371.868 340.496,372.312 340.726 C 372.755 340.955,373.118 341.082,373.118 341.008 C 373.118 340.935,372.755 340.686,372.312 340.457 C 371.868 340.228,371.505 340.100,371.505 340.174 M250.874 341.137 C 250.097 341.582,249.462 342.009,249.462 342.087 C 249.462 342.233,251.828 340.937,252.272 340.547 C 252.742 340.133,252.295 340.322,250.874 341.137 M374.328 341.862 C 374.476 342.001,375.202 342.446,375.941 342.849 C 376.680 343.252,377.043 343.384,376.747 343.141 C 376.146 342.647,373.907 341.463,374.328 341.862 M247.782 342.896 C 246.777 343.441,246.838 343.668,247.849 343.145 C 248.293 342.916,248.656 342.671,248.656 342.601 C 248.656 342.428,248.627 342.437,247.782 342.896 M377.419 343.669 C 377.419 343.743,377.782 343.991,378.226 344.220 C 378.669 344.450,379.032 344.577,379.032 344.503 C 379.032 344.429,378.669 344.181,378.226 343.952 C 377.782 343.722,377.419 343.595,377.419 343.669 M244.556 344.777 C 243.551 345.323,243.613 345.550,244.624 345.027 C 245.067 344.798,245.430 344.552,245.430 344.482 C 245.430 344.309,245.401 344.319,244.556 344.777 M379.301 344.744 C 379.301 344.818,379.664 345.066,380.108 345.296 C 380.551 345.525,380.914 345.652,380.914 345.578 C 380.914 345.504,380.551 345.256,380.108 345.027 C 379.664 344.798,379.301 344.670,379.301 344.744 M242.675 345.853 C 241.670 346.398,241.731 346.625,242.742 346.102 C 243.185 345.873,243.548 345.628,243.548 345.558 C 243.548 345.385,243.520 345.394,242.675 345.853 M235.989 346.438 C 236.358 347.136,237.570 348.004,237.822 347.751 C 237.916 347.658,237.840 347.581,237.653 347.581 C 237.466 347.581,236.943 347.187,236.491 346.707 C 235.917 346.097,235.766 346.016,235.989 346.438 M240.726 347.043 C 240.282 347.337,240.040 347.575,240.188 347.573 C 240.458 347.569,241.919 346.521,241.667 346.513 C 241.593 346.511,241.169 346.749,240.726 347.043 M379.234 347.734 C 378.229 348.280,378.290 348.507,379.301 347.984 C 379.745 347.755,380.108 347.509,380.108 347.439 C 380.108 347.266,380.079 347.276,379.234 347.734 M377.352 348.810 C 376.347 349.355,376.408 349.582,377.419 349.059 C 377.863 348.830,378.226 348.585,378.226 348.515 C 378.226 348.342,378.197 348.351,377.352 348.810 M375.470 349.885 C 374.465 350.430,374.527 350.657,375.538 350.134 C 375.981 349.905,376.344 349.660,376.344 349.590 C 376.344 349.417,376.315 349.427,375.470 349.885 M370.363 352.842 C 369.358 353.387,369.419 353.614,370.430 353.091 C 370.874 352.862,371.237 352.617,371.237 352.547 C 371.237 352.374,371.208 352.384,370.363 352.842 M368.481 353.917 C 367.476 354.462,367.537 354.689,368.548 354.167 C 368.992 353.937,369.355 353.692,369.355 353.622 C 369.355 353.449,369.326 353.459,368.481 353.917 M365.255 355.799 C 364.250 356.344,364.312 356.571,365.323 356.048 C 365.766 355.819,366.129 355.574,366.129 355.504 C 366.129 355.331,366.100 355.341,365.255 355.799 M362.570 357.353 C 360.484 358.550,360.212 358.919,362.231 357.813 C 363.701 357.009,364.544 356.439,364.234 356.460 C 364.167 356.464,363.418 356.866,362.570 357.353 M359.610 359.025 C 358.605 359.570,358.666 359.797,359.677 359.274 C 360.121 359.045,360.484 358.800,360.484 358.730 C 360.484 358.557,360.455 358.566,359.610 359.025 M354.503 361.982 C 353.498 362.527,353.559 362.754,354.570 362.231 C 355.013 362.002,355.376 361.757,355.376 361.687 C 355.376 361.514,355.347 361.523,354.503 361.982 M352.621 363.057 C 351.616 363.602,351.677 363.829,352.688 363.306 C 353.132 363.077,353.495 362.832,353.495 362.762 C 353.495 362.589,353.466 362.599,352.621 363.057 M349.395 364.939 C 348.390 365.484,348.451 365.711,349.462 365.188 C 349.906 364.959,350.269 364.714,350.269 364.644 C 350.269 364.471,350.240 364.480,349.395 364.939 M347.513 366.014 C 346.508 366.559,346.570 366.786,347.581 366.263 C 348.024 366.034,348.387 365.789,348.387 365.719 C 348.387 365.546,348.358 365.556,347.513 366.014 M341.062 369.777 C 340.057 370.323,340.118 370.550,341.129 370.027 C 341.573 369.798,341.935 369.552,341.935 369.482 C 341.935 369.309,341.907 369.319,341.062 369.777 M339.180 370.853 C 338.175 371.398,338.236 371.625,339.247 371.102 C 339.691 370.873,340.054 370.628,340.054 370.558 C 340.054 370.385,340.025 370.394,339.180 370.853 M337.298 371.928 C 336.293 372.473,336.355 372.700,337.366 372.177 C 337.809 371.948,338.172 371.703,338.172 371.633 C 338.172 371.460,338.143 371.470,337.298 371.928 M335.417 373.003 C 334.412 373.548,334.473 373.775,335.484 373.253 C 335.927 373.023,336.290 372.778,336.290 372.708 C 336.290 372.535,336.261 372.545,335.417 373.003 M333.535 374.078 C 332.530 374.624,332.591 374.851,333.602 374.328 C 334.046 374.099,334.409 373.854,334.409 373.783 C 334.409 373.610,334.380 373.620,333.535 374.078 M331.653 375.154 C 330.648 375.699,330.709 375.926,331.720 375.403 C 332.164 375.174,332.527 374.929,332.527 374.859 C 332.527 374.686,332.498 374.695,331.653 375.154 M328.427 377.035 C 327.422 377.581,327.484 377.808,328.495 377.285 C 328.938 377.056,329.301 376.811,329.301 376.740 C 329.301 376.567,329.272 376.577,328.427 377.035 M326.546 378.111 C 325.541 378.656,325.602 378.883,326.613 378.360 C 327.056 378.131,327.419 377.886,327.419 377.816 C 327.419 377.643,327.390 377.652,326.546 378.111 M323.992 379.598 C 323.216 380.051,322.581 380.483,322.581 380.558 C 322.581 380.708,324.971 379.378,325.390 378.997 C 325.845 378.581,325.432 378.759,323.992 379.598 M321.438 381.068 C 320.433 381.613,320.494 381.840,321.505 381.317 C 321.949 381.088,322.312 380.843,322.312 380.773 C 322.312 380.600,322.283 380.609,321.438 381.068 M318.884 382.555 C 318.108 383.007,317.473 383.440,317.473 383.515 C 317.473 383.665,319.864 382.335,320.282 381.954 C 320.738 381.538,320.324 381.716,318.884 382.555 M316.331 384.025 C 315.326 384.570,315.387 384.797,316.398 384.274 C 316.841 384.045,317.204 383.800,317.204 383.730 C 317.204 383.557,317.175 383.566,316.331 384.025 M314.449 385.100 C 313.444 385.645,313.505 385.872,314.516 385.349 C 314.960 385.120,315.323 384.875,315.323 384.805 C 315.323 384.632,315.294 384.642,314.449 385.100 M311.223 386.982 C 310.218 387.527,310.279 387.754,311.290 387.231 C 311.734 387.002,312.097 386.757,312.097 386.687 C 312.097 386.514,312.068 386.523,311.223 386.982 M309.341 388.057 C 308.336 388.602,308.398 388.829,309.409 388.306 C 309.852 388.077,310.215 387.832,310.215 387.762 C 310.215 387.589,310.186 387.599,309.341 388.057 M307.460 389.132 C 306.455 389.677,306.516 389.905,307.527 389.382 C 307.970 389.152,308.333 388.907,308.333 388.837 C 308.333 388.664,308.304 388.674,307.460 389.132 M305.578 390.208 C 304.573 390.753,304.634 390.980,305.645 390.457 C 306.089 390.228,306.452 389.983,306.452 389.912 C 306.452 389.739,306.423 389.749,305.578 390.208 M303.024 391.695 C 302.248 392.147,301.613 392.579,301.613 392.655 C 301.613 392.805,304.004 391.475,304.422 391.093 C 304.878 390.678,304.464 390.856,303.024 391.695 M296.304 395.584 C 295.380 396.108,294.624 396.599,294.624 396.675 C 294.624 396.824,297.545 395.232,297.970 394.852 C 298.443 394.429,297.993 394.627,296.304 395.584 M293.481 397.197 C 292.476 397.742,292.537 397.969,293.548 397.446 C 293.992 397.217,294.355 396.972,294.355 396.902 C 294.355 396.729,294.326 396.738,293.481 397.197 M291.599 398.272 C 290.595 398.817,290.656 399.044,291.667 398.522 C 292.110 398.292,292.473 398.047,292.473 397.977 C 292.473 397.804,292.444 397.814,291.599 398.272 M288.374 400.154 C 287.369 400.699,287.430 400.926,288.441 400.403 C 288.884 400.174,289.247 399.929,289.247 399.859 C 289.247 399.686,289.218 399.695,288.374 400.154 M286.492 401.229 C 285.487 401.774,285.548 402.001,286.559 401.478 C 287.003 401.249,287.366 401.004,287.366 400.934 C 287.366 400.761,287.337 400.771,286.492 401.229 M284.610 402.304 C 283.605 402.849,283.666 403.077,284.677 402.554 C 285.121 402.324,285.484 402.079,285.484 402.009 C 285.484 401.836,285.455 401.846,284.610 402.304 M282.728 403.380 C 281.724 403.925,281.785 404.152,282.796 403.629 C 283.239 403.400,283.602 403.155,283.602 403.084 C 283.602 402.912,283.573 402.921,282.728 403.380 M280.175 404.867 C 279.399 405.319,278.763 405.752,278.763 405.827 C 278.763 405.977,281.154 404.647,281.573 404.265 C 282.028 403.850,281.614 404.028,280.175 404.867 M277.621 406.337 C 276.616 406.882,276.677 407.109,277.688 406.586 C 278.132 406.357,278.495 406.112,278.495 406.041 C 278.495 405.869,278.466 405.878,277.621 406.337 M275.739 407.412 C 274.734 407.957,274.795 408.184,275.806 407.661 C 276.250 407.432,276.613 407.187,276.613 407.117 C 276.613 406.944,276.584 406.954,275.739 407.412 M273.185 408.899 C 272.409 409.352,271.774 409.784,271.774 409.860 C 271.774 410.009,274.165 408.680,274.583 408.298 C 275.039 407.882,274.625 408.060,273.185 408.899 M270.632 410.369 C 269.627 410.914,269.688 411.141,270.699 410.618 C 271.142 410.389,271.505 410.144,271.505 410.074 C 271.505 409.901,271.476 409.911,270.632 410.369 M268.750 411.444 C 267.745 411.989,267.806 412.216,268.817 411.694 C 269.261 411.464,269.624 411.219,269.624 411.149 C 269.624 410.976,269.595 410.986,268.750 411.444 M265.524 413.326 C 264.519 413.871,264.580 414.098,265.591 413.575 C 266.035 413.346,266.398 413.101,266.398 413.031 C 266.398 412.858,266.369 412.868,265.524 413.326 M263.642 414.401 C 262.638 414.946,262.699 415.173,263.710 414.651 C 264.153 414.421,264.516 414.176,264.516 414.106 C 264.516 413.933,264.487 413.943,263.642 414.401 M261.089 415.888 C 260.313 416.341,259.677 416.773,259.677 416.849 C 259.677 416.998,262.068 415.669,262.487 415.287 C 262.942 414.871,262.528 415.049,261.089 415.888 M258.535 417.358 C 257.530 417.903,257.591 418.130,258.602 417.608 C 259.046 417.378,259.409 417.133,259.409 417.063 C 259.409 416.890,259.380 416.900,258.535 417.358 M255.309 419.240 C 254.304 419.785,254.365 420.012,255.376 419.489 C 255.820 419.260,256.183 419.015,256.183 418.945 C 256.183 418.772,256.154 418.781,255.309 419.240 M250.874 421.802 C 250.097 422.255,249.462 422.687,249.462 422.763 C 249.462 422.912,251.853 421.583,252.272 421.201 C 252.727 420.785,252.313 420.963,250.874 421.802 M248.320 423.272 C 247.315 423.817,247.376 424.044,248.387 423.522 C 248.831 423.292,249.194 423.047,249.194 422.977 C 249.194 422.804,249.165 422.814,248.320 423.272 M246.169 424.481 C 245.615 424.773,245.161 425.073,245.161 425.146 C 245.161 425.220,245.645 425.033,246.237 424.731 C 246.828 424.429,247.312 424.125,247.312 424.054 C 247.312 423.878,247.310 423.879,246.169 424.481 M242.675 426.498 C 241.670 427.043,241.731 427.270,242.742 426.747 C 243.185 426.518,243.548 426.273,243.548 426.203 C 243.548 426.030,243.520 426.040,242.675 426.498 M239.449 428.380 C 238.444 428.925,238.505 429.152,239.516 428.629 C 239.960 428.400,240.323 428.155,240.323 428.084 C 240.323 427.912,240.294 427.921,239.449 428.380 M236.223 430.261 C 235.218 430.806,235.279 431.034,236.290 430.511 C 236.734 430.281,237.097 430.036,237.097 429.966 C 237.097 429.793,237.068 429.803,236.223 430.261 M234.341 431.337 C 233.336 431.882,233.398 432.109,234.409 431.586 C 234.852 431.357,235.215 431.112,235.215 431.041 C 235.215 430.869,235.186 430.878,234.341 431.337 M232.460 432.412 C 231.455 432.957,231.516 433.184,232.527 432.661 C 232.970 432.432,233.333 432.187,233.333 432.117 C 233.333 431.944,233.304 431.954,232.460 432.412 M230.578 433.487 C 229.573 434.032,229.634 434.259,230.645 433.737 C 231.089 433.507,231.452 433.262,231.452 433.192 C 231.452 433.019,231.423 433.029,230.578 433.487 M228.696 434.562 C 227.691 435.108,227.752 435.335,228.763 434.812 C 229.207 434.582,229.570 434.337,229.570 434.267 C 229.570 434.094,229.541 434.104,228.696 434.562 M225.470 436.444 C 224.465 436.989,224.527 437.216,225.538 436.694 C 225.981 436.464,226.344 436.219,226.344 436.149 C 226.344 435.976,226.315 435.986,225.470 436.444 M222.917 437.931 C 222.140 438.384,221.505 438.816,221.505 438.892 C 221.505 439.041,223.896 437.712,224.315 437.330 C 224.770 436.914,224.356 437.092,222.917 437.931 M220.363 439.401 C 219.358 439.946,219.419 440.173,220.430 439.651 C 220.874 439.421,221.237 439.176,221.237 439.106 C 221.237 438.933,221.208 438.943,220.363 439.401 M217.272 441.157 C 216.495 441.610,215.860 442.042,215.860 442.118 C 215.860 442.267,218.251 440.938,218.669 440.556 C 219.125 440.140,218.711 440.318,217.272 441.157 M214.718 442.627 C 213.713 443.172,213.774 443.399,214.785 442.876 C 215.228 442.647,215.591 442.402,215.591 442.332 C 215.591 442.159,215.563 442.169,214.718 442.627 M212.164 444.114 C 211.388 444.567,210.753 444.999,210.753 445.075 C 210.753 445.224,213.143 443.895,213.562 443.513 C 214.017 443.097,213.604 443.275,212.164 444.114 M208.266 446.390 C 207.261 446.936,207.322 447.163,208.333 446.640 C 208.777 446.410,209.140 446.165,209.140 446.095 C 209.140 445.922,209.111 445.932,208.266 446.390 M206.384 447.466 C 205.379 448.011,205.441 448.238,206.452 447.715 C 206.895 447.486,207.258 447.241,207.258 447.171 C 207.258 446.998,207.229 447.007,206.384 447.466 M203.562 449.079 C 202.638 449.603,201.882 450.093,201.882 450.170 C 201.882 450.318,204.803 448.727,205.228 448.347 C 205.701 447.924,205.251 448.122,203.562 449.079 " stroke="none" fill="#1c1c1c" fill-rule="evenodd"></path><path id="path4" d="M182.663 0.266 C 182.569 0.418,182.677 0.463,182.916 0.371 C 183.482 0.154,183.563 80.575,182.997 81.145 C 182.728 81.416,182.755 81.448,183.132 81.304 C 183.791 81.054,183.873 0.000,183.215 0.000 C 183.002 0.000,182.754 0.120,182.663 0.266 M217.204 40.563 C 217.204 78.946,217.230 81.135,217.675 81.304 C 218.052 81.448,218.079 81.416,217.809 81.145 C 217.243 80.575,217.324 0.154,217.890 0.371 C 218.130 0.463,218.237 0.418,218.143 0.266 C 217.205 -1.253,217.204 -1.244,217.204 40.563 M219.355 1.196 C 219.355 1.270,219.718 1.518,220.161 1.747 C 220.605 1.977,220.968 2.104,220.968 2.030 C 220.968 1.956,220.605 1.708,220.161 1.478 C 219.718 1.249,219.355 1.122,219.355 1.196 M221.237 2.271 C 221.237 2.345,221.599 2.593,222.043 2.823 C 222.487 3.052,222.849 3.179,222.849 3.105 C 222.849 3.031,222.487 2.783,222.043 2.554 C 221.599 2.324,221.237 2.197,221.237 2.271 M177.890 2.975 C 177.335 3.268,176.882 3.568,176.882 3.641 C 176.882 3.714,177.366 3.528,177.957 3.226 C 178.548 2.924,179.032 2.619,179.032 2.548 C 179.032 2.372,179.030 2.373,177.890 2.975 M223.118 3.346 C 223.118 3.420,223.481 3.668,223.925 3.898 C 224.368 4.127,224.731 4.254,224.731 4.180 C 224.731 4.107,224.368 3.858,223.925 3.629 C 223.481 3.400,223.118 3.272,223.118 3.346 M225.000 4.422 C 225.000 4.496,225.363 4.744,225.806 4.973 C 226.250 5.202,226.613 5.330,226.613 5.256 C 226.613 5.182,226.250 4.934,225.806 4.704 C 225.363 4.475,225.000 4.348,225.000 4.422 M173.858 5.261 C 172.853 5.806,172.914 6.034,173.925 5.511 C 174.368 5.281,174.731 5.036,174.731 4.966 C 174.731 4.793,174.702 4.803,173.858 5.261 M229.570 7.110 C 229.570 7.184,229.933 7.432,230.376 7.661 C 230.820 7.891,231.183 8.018,231.183 7.944 C 231.183 7.870,230.820 7.622,230.376 7.392 C 229.933 7.163,229.570 7.036,229.570 7.110 M168.750 8.218 C 167.745 8.763,167.806 8.991,168.817 8.468 C 169.261 8.238,169.624 7.993,169.624 7.923 C 169.624 7.750,169.595 7.760,168.750 8.218 M232.796 8.992 C 232.796 9.065,233.159 9.314,233.602 9.543 C 234.046 9.772,234.409 9.900,234.409 9.826 C 234.409 9.752,234.046 9.504,233.602 9.274 C 233.159 9.045,232.796 8.918,232.796 8.992 M165.524 10.100 C 164.519 10.645,164.580 10.872,165.591 10.349 C 166.035 10.120,166.398 9.875,166.398 9.805 C 166.398 9.632,166.369 9.642,165.524 10.100 M163.642 11.175 C 162.638 11.720,162.699 11.948,163.710 11.425 C 164.153 11.195,164.516 10.950,164.516 10.880 C 164.516 10.707,164.487 10.717,163.642 11.175 M161.223 12.519 C 160.218 13.065,160.279 13.292,161.290 12.769 C 161.734 12.539,162.097 12.294,162.097 12.224 C 162.097 12.051,162.068 12.061,161.223 12.519 M157.997 14.401 C 156.992 14.946,157.054 15.173,158.065 14.651 C 158.508 14.421,158.871 14.176,158.871 14.106 C 158.871 13.933,158.842 13.943,157.997 14.401 M156.116 15.476 C 155.111 16.022,155.172 16.249,156.183 15.726 C 156.626 15.496,156.989 15.251,156.989 15.181 C 156.989 15.008,156.960 15.018,156.116 15.476 M154.234 16.552 C 153.229 17.097,153.290 17.324,154.301 16.801 C 154.745 16.572,155.108 16.327,155.108 16.257 C 155.108 16.084,155.079 16.093,154.234 16.552 M152.352 17.627 C 151.347 18.172,151.408 18.399,152.419 17.876 C 152.863 17.647,153.226 17.402,153.226 17.332 C 153.226 17.159,153.197 17.169,152.352 17.627 M150.470 18.702 C 149.465 19.247,149.527 19.474,150.538 18.952 C 150.981 18.722,151.344 18.477,151.344 18.407 C 151.344 18.234,151.315 18.244,150.470 18.702 M148.589 19.777 C 147.584 20.323,147.645 20.550,148.656 20.027 C 149.099 19.798,149.462 19.552,149.462 19.482 C 149.462 19.309,149.433 19.319,148.589 19.777 M145.363 21.659 C 144.358 22.204,144.419 22.431,145.430 21.909 C 145.874 21.679,146.237 21.434,146.237 21.364 C 146.237 21.191,146.208 21.201,145.363 21.659 M142.137 23.541 C 141.132 24.086,141.193 24.313,142.204 23.790 C 142.648 23.561,143.011 23.316,143.011 23.246 C 143.011 23.073,142.982 23.083,142.137 23.541 M140.255 24.616 C 139.250 25.161,139.312 25.388,140.323 24.866 C 140.766 24.636,141.129 24.391,141.129 24.321 C 141.129 24.148,141.100 24.158,140.255 24.616 M138.374 25.691 C 137.369 26.237,137.430 26.464,138.441 25.941 C 138.884 25.711,139.247 25.466,139.247 25.396 C 139.247 25.223,139.218 25.233,138.374 25.691 M136.492 26.767 C 135.487 27.312,135.548 27.539,136.559 27.016 C 137.003 26.787,137.366 26.542,137.366 26.472 C 137.366 26.299,137.337 26.308,136.492 26.767 M134.073 28.111 C 133.068 28.656,133.129 28.883,134.140 28.360 C 134.583 28.131,134.946 27.886,134.946 27.816 C 134.946 27.643,134.917 27.652,134.073 28.111 M132.191 29.186 C 131.186 29.731,131.247 29.958,132.258 29.435 C 132.702 29.206,133.065 28.961,133.065 28.891 C 133.065 28.718,133.036 28.728,132.191 29.186 M128.965 31.068 C 127.960 31.613,128.021 31.840,129.032 31.317 C 129.476 31.088,129.839 30.843,129.839 30.773 C 129.839 30.600,129.810 30.609,128.965 31.068 M127.083 32.143 C 126.078 32.688,126.140 32.915,127.151 32.392 C 127.594 32.163,127.957 31.918,127.957 31.848 C 127.957 31.675,127.928 31.685,127.083 32.143 M125.202 33.218 C 124.197 33.763,124.258 33.991,125.269 33.468 C 125.712 33.238,126.075 32.993,126.075 32.923 C 126.075 32.750,126.046 32.760,125.202 33.218 M123.320 34.294 C 122.315 34.839,122.376 35.066,123.387 34.543 C 123.831 34.314,124.194 34.069,124.194 33.998 C 124.194 33.825,124.165 33.835,123.320 34.294 M114.449 39.401 C 113.444 39.946,113.505 40.173,114.516 39.651 C 114.960 39.421,115.323 39.176,115.323 39.106 C 115.323 38.933,115.294 38.943,114.449 39.401 M109.341 42.358 C 108.336 42.903,108.398 43.130,109.409 42.608 C 109.852 42.378,110.215 42.133,110.215 42.063 C 110.215 41.890,110.186 41.900,109.341 42.358 M101.815 46.659 C 100.810 47.204,100.871 47.431,101.882 46.909 C 102.325 46.679,102.688 46.434,102.688 46.364 C 102.688 46.191,102.659 46.201,101.815 46.659 M98.051 48.810 C 97.046 49.355,97.107 49.582,98.118 49.059 C 98.562 48.830,98.925 48.585,98.925 48.515 C 98.925 48.342,98.896 48.351,98.051 48.810 M96.169 49.885 C 95.164 50.430,95.226 50.657,96.237 50.134 C 96.680 49.905,97.043 49.660,97.043 49.590 C 97.043 49.417,97.014 49.427,96.169 49.885 M94.288 50.960 C 93.283 51.505,93.344 51.732,94.355 51.210 C 94.798 50.980,95.161 50.735,95.161 50.665 C 95.161 50.492,95.132 50.502,94.288 50.960 M92.406 52.035 C 91.401 52.581,91.462 52.808,92.473 52.285 C 92.917 52.056,93.280 51.811,93.280 51.740 C 93.280 51.567,93.251 51.577,92.406 52.035 M89.180 53.917 C 88.175 54.462,88.236 54.689,89.247 54.167 C 89.691 53.937,90.054 53.692,90.054 53.622 C 90.054 53.449,90.025 53.459,89.180 53.917 M85.417 56.068 C 84.412 56.613,84.473 56.840,85.484 56.317 C 85.927 56.088,86.290 55.843,86.290 55.773 C 86.290 55.600,86.261 55.609,85.417 56.068 M79.772 59.294 C 78.767 59.839,78.828 60.066,79.839 59.543 C 80.282 59.314,80.645 59.069,80.645 58.998 C 80.645 58.825,80.616 58.835,79.772 59.294 M77.890 60.369 C 76.885 60.914,76.946 61.141,77.957 60.618 C 78.401 60.389,78.763 60.144,78.763 60.074 C 78.763 59.901,78.735 59.911,77.890 60.369 M76.008 61.444 C 75.003 61.989,75.064 62.216,76.075 61.694 C 76.519 61.464,76.882 61.219,76.882 61.149 C 76.882 60.976,76.853 60.986,76.008 61.444 M74.126 62.519 C 73.121 63.065,73.183 63.292,74.194 62.769 C 74.637 62.539,75.000 62.294,75.000 62.224 C 75.000 62.051,74.971 62.061,74.126 62.519 M65.255 67.627 C 64.250 68.172,64.312 68.399,65.323 67.876 C 65.766 67.647,66.129 67.402,66.129 67.332 C 66.129 67.159,66.100 67.169,65.255 67.627 M63.374 68.702 C 62.369 69.247,62.430 69.474,63.441 68.952 C 63.884 68.722,64.247 68.477,64.247 68.407 C 64.247 68.234,64.218 68.244,63.374 68.702 M61.492 69.777 C 60.487 70.323,60.548 70.550,61.559 70.027 C 62.003 69.798,62.366 69.552,62.366 69.482 C 62.366 69.309,62.337 69.319,61.492 69.777 M58.266 71.659 C 57.261 72.204,57.322 72.431,58.333 71.909 C 58.777 71.679,59.140 71.434,59.140 71.364 C 59.140 71.191,59.111 71.201,58.266 71.659 M56.384 72.734 C 55.379 73.280,55.441 73.507,56.452 72.984 C 56.895 72.755,57.258 72.509,57.258 72.439 C 57.258 72.266,57.229 72.276,56.384 72.734 M54.503 73.810 C 53.498 74.355,53.559 74.582,54.570 74.059 C 55.013 73.830,55.376 73.585,55.376 73.515 C 55.376 73.342,55.347 73.351,54.503 73.810 M52.621 74.885 C 51.616 75.430,51.677 75.657,52.688 75.134 C 53.132 74.905,53.495 74.660,53.495 74.590 C 53.495 74.417,53.466 74.427,52.621 74.885 M49.395 76.767 C 48.390 77.312,48.451 77.539,49.462 77.016 C 49.906 76.787,50.269 76.542,50.269 76.472 C 50.269 76.299,50.240 76.308,49.395 76.767 M46.976 78.111 C 45.971 78.656,46.032 78.883,47.043 78.360 C 47.487 78.131,47.849 77.886,47.849 77.816 C 47.849 77.643,47.821 77.652,46.976 78.111 M45.094 79.186 C 44.089 79.731,44.150 79.958,45.161 79.435 C 45.605 79.206,45.968 78.961,45.968 78.891 C 45.968 78.718,45.939 78.728,45.094 79.186 M43.212 80.261 C 42.207 80.806,42.269 81.034,43.280 80.511 C 43.723 80.281,44.086 80.036,44.086 79.966 C 44.086 79.793,44.057 79.803,43.212 80.261 M218.280 81.572 C 218.280 81.646,218.642 81.894,219.086 82.124 C 219.530 82.353,219.892 82.480,219.892 82.406 C 219.892 82.332,219.530 82.084,219.086 81.855 C 218.642 81.625,218.280 81.498,218.280 81.572 M181.116 82.143 C 180.111 82.688,180.172 82.915,181.183 82.392 C 181.626 82.163,181.989 81.918,181.989 81.848 C 181.989 81.675,181.960 81.685,181.116 82.143 M38.642 82.949 C 37.638 83.495,37.699 83.722,38.710 83.199 C 39.153 82.970,39.516 82.725,39.516 82.654 C 39.516 82.481,39.487 82.491,38.642 82.949 M220.161 82.647 C 220.161 82.721,220.524 82.970,220.968 83.199 C 221.411 83.428,221.774 83.555,221.774 83.482 C 221.774 83.408,221.411 83.159,220.968 82.930 C 220.524 82.701,220.161 82.574,220.161 82.647 M36.761 84.025 C 35.756 84.570,35.817 84.797,36.828 84.274 C 37.272 84.045,37.634 83.800,37.634 83.730 C 37.634 83.557,37.606 83.566,36.761 84.025 M177.890 84.025 C 176.885 84.570,176.946 84.797,177.957 84.274 C 178.401 84.045,178.763 83.800,178.763 83.730 C 178.763 83.557,178.735 83.566,177.890 84.025 M34.879 85.100 C 33.874 85.645,33.935 85.872,34.946 85.349 C 35.390 85.120,35.753 84.875,35.753 84.805 C 35.753 84.632,35.724 84.642,34.879 85.100 M32.997 86.175 C 31.992 86.720,32.054 86.948,33.065 86.425 C 33.508 86.195,33.871 85.950,33.871 85.880 C 33.871 85.707,33.842 85.717,32.997 86.175 M226.075 86.145 C 226.075 86.219,226.559 86.526,227.151 86.828 C 227.742 87.130,228.226 87.316,228.226 87.242 C 228.226 87.168,227.742 86.861,227.151 86.559 C 226.559 86.257,226.075 86.071,226.075 86.145 M172.782 86.982 C 171.777 87.527,171.838 87.754,172.849 87.231 C 173.293 87.002,173.656 86.757,173.656 86.687 C 173.656 86.514,173.627 86.523,172.782 86.982 M31.116 87.251 C 30.111 87.796,30.172 88.023,31.183 87.500 C 31.626 87.271,31.989 87.026,31.989 86.955 C 31.989 86.782,31.960 86.792,31.116 87.251 M228.495 87.486 C 228.495 87.560,228.858 87.808,229.301 88.038 C 229.745 88.267,230.108 88.394,230.108 88.320 C 230.108 88.246,229.745 87.998,229.301 87.769 C 228.858 87.539,228.495 87.412,228.495 87.486 M29.234 88.326 C 28.229 88.871,28.290 89.098,29.301 88.575 C 29.745 88.346,30.108 88.101,30.108 88.031 C 30.108 87.858,30.079 87.868,29.234 88.326 M27.352 89.401 C 26.347 89.946,26.408 90.173,27.419 89.651 C 27.863 89.421,28.226 89.176,28.226 89.106 C 28.226 88.933,28.197 88.943,27.352 89.401 M25.470 90.476 C 24.465 91.022,24.527 91.249,25.538 90.726 C 25.981 90.496,26.344 90.251,26.344 90.181 C 26.344 90.008,26.315 90.018,25.470 90.476 M233.602 90.443 C 233.602 90.517,233.965 90.765,234.409 90.995 C 234.852 91.224,235.215 91.351,235.215 91.277 C 235.215 91.203,234.852 90.955,234.409 90.726 C 233.965 90.496,233.602 90.369,233.602 90.443 M165.793 91.014 C 164.788 91.559,164.849 91.786,165.860 91.263 C 166.304 91.034,166.667 90.789,166.667 90.719 C 166.667 90.546,166.638 90.556,165.793 91.014 M23.589 91.552 C 22.584 92.097,22.645 92.324,23.656 91.801 C 24.099 91.572,24.462 91.327,24.462 91.257 C 24.462 91.084,24.433 91.093,23.589 91.552 M21.707 92.627 C 20.702 93.172,20.763 93.399,21.774 92.876 C 22.218 92.647,22.581 92.402,22.581 92.332 C 22.581 92.159,22.552 92.169,21.707 92.627 M238.172 93.131 C 238.172 93.205,238.535 93.453,238.978 93.683 C 239.422 93.912,239.785 94.039,239.785 93.965 C 239.785 93.891,239.422 93.643,238.978 93.414 C 238.535 93.185,238.172 93.057,238.172 93.131 M19.825 93.702 C 18.820 94.247,18.881 94.474,19.892 93.952 C 20.336 93.722,20.699 93.477,20.699 93.407 C 20.699 93.234,20.670 93.244,19.825 93.702 M161.223 93.702 C 160.218 94.247,160.279 94.474,161.290 93.952 C 161.734 93.722,162.097 93.477,162.097 93.407 C 162.097 93.234,162.068 93.244,161.223 93.702 M17.944 94.777 C 16.939 95.323,17.000 95.550,18.011 95.027 C 18.454 94.798,18.817 94.552,18.817 94.482 C 18.817 94.309,18.788 94.319,17.944 94.777 M159.341 94.777 C 158.336 95.323,158.398 95.550,159.409 95.027 C 159.852 94.798,160.215 94.552,160.215 94.482 C 160.215 94.309,160.186 94.319,159.341 94.777 M241.398 95.016 C 241.398 95.090,241.882 95.397,242.473 95.699 C 243.065 96.001,243.548 96.187,243.548 96.113 C 243.548 96.039,243.065 95.732,242.473 95.430 C 241.882 95.128,241.398 94.942,241.398 95.016 M16.062 95.853 C 15.057 96.398,15.118 96.625,16.129 96.102 C 16.573 95.873,16.935 95.628,16.935 95.558 C 16.935 95.385,16.907 95.394,16.062 95.853 M156.922 96.121 C 155.917 96.667,155.978 96.894,156.989 96.371 C 157.433 96.142,157.796 95.897,157.796 95.826 C 157.796 95.653,157.767 95.663,156.922 96.121 M246.505 97.970 C 246.505 98.044,246.868 98.292,247.312 98.522 C 247.755 98.751,248.118 98.878,248.118 98.804 C 248.118 98.730,247.755 98.482,247.312 98.253 C 246.868 98.023,246.505 97.896,246.505 97.970 M10.954 98.810 C 9.949 99.355,10.011 99.582,11.022 99.059 C 11.465 98.830,11.828 98.585,11.828 98.515 C 11.828 98.342,11.799 98.351,10.954 98.810 M152.352 98.810 C 151.347 99.355,151.408 99.582,152.419 99.059 C 152.863 98.830,153.226 98.585,153.226 98.515 C 153.226 98.342,153.197 98.351,152.352 98.810 M248.387 99.045 C 248.387 99.119,248.750 99.367,249.194 99.597 C 249.637 99.826,250.000 99.953,250.000 99.879 C 250.000 99.805,249.637 99.557,249.194 99.328 C 248.750 99.099,248.387 98.971,248.387 99.045 M150.470 99.885 C 149.465 100.430,149.527 100.657,150.538 100.134 C 150.981 99.905,151.344 99.660,151.344 99.590 C 151.344 99.417,151.315 99.427,150.470 99.885 M7.728 100.691 C 6.724 101.237,6.785 101.464,7.796 100.941 C 8.239 100.711,8.602 100.466,8.602 100.396 C 8.602 100.223,8.573 100.233,7.728 100.691 M251.613 100.927 C 251.613 101.001,251.976 101.249,252.419 101.478 C 252.863 101.708,253.226 101.835,253.226 101.761 C 253.226 101.687,252.863 101.439,252.419 101.210 C 251.976 100.980,251.613 100.853,251.613 100.927 M5.309 102.035 C 4.304 102.581,4.365 102.808,5.376 102.285 C 5.820 102.056,6.183 101.811,6.183 101.740 C 6.183 101.567,6.154 101.577,5.309 102.035 M146.707 102.035 C 145.702 102.581,145.763 102.808,146.774 102.285 C 147.218 102.056,147.581 101.811,147.581 101.740 C 147.581 101.567,147.552 101.577,146.707 102.035 M143.481 103.917 C 142.476 104.462,142.537 104.689,143.548 104.167 C 143.992 103.937,144.355 103.692,144.355 103.622 C 144.355 103.449,144.326 103.459,143.481 103.917 M257.258 104.153 C 257.258 104.227,257.621 104.475,258.065 104.704 C 258.508 104.934,258.871 105.061,258.871 104.987 C 258.871 104.913,258.508 104.665,258.065 104.435 C 257.621 104.206,257.258 104.079,257.258 104.153 M141.599 104.992 C 140.595 105.538,140.656 105.765,141.667 105.242 C 142.110 105.013,142.473 104.768,142.473 104.697 C 142.473 104.524,142.444 104.534,141.599 104.992 M261.828 106.841 C 261.828 106.915,262.191 107.163,262.634 107.392 C 263.078 107.622,263.441 107.749,263.441 107.675 C 263.441 107.601,263.078 107.353,262.634 107.124 C 262.191 106.894,261.828 106.767,261.828 106.841 M136.492 107.949 C 135.487 108.495,135.548 108.722,136.559 108.199 C 137.003 107.970,137.366 107.725,137.366 107.654 C 137.366 107.481,137.337 107.491,136.492 107.949 M130.040 111.713 C 129.035 112.258,129.097 112.485,130.108 111.962 C 130.551 111.733,130.914 111.488,130.914 111.418 C 130.914 111.245,130.885 111.255,130.040 111.713 M270.161 111.680 C 270.161 111.754,270.524 112.002,270.968 112.231 C 271.411 112.461,271.774 112.588,271.774 112.514 C 271.774 112.440,271.411 112.192,270.968 111.962 C 270.524 111.733,270.161 111.606,270.161 111.680 M272.581 113.024 C 272.581 113.098,272.944 113.346,273.387 113.575 C 273.831 113.805,274.194 113.932,274.194 113.858 C 274.194 113.784,273.831 113.536,273.387 113.306 C 272.944 113.077,272.581 112.950,272.581 113.024 M123.051 115.745 C 122.046 116.290,122.107 116.517,123.118 115.995 C 123.562 115.765,123.925 115.520,123.925 115.450 C 123.925 115.277,123.896 115.287,123.051 115.745 M277.151 115.712 C 277.151 115.786,277.513 116.034,277.957 116.263 C 278.401 116.493,278.763 116.620,278.763 116.546 C 278.763 116.472,278.401 116.224,277.957 115.995 C 277.513 115.765,277.151 115.638,277.151 115.712 M119.556 117.760 C 119.002 118.053,118.548 118.352,118.548 118.426 C 118.548 118.499,119.032 118.312,119.624 118.011 C 120.215 117.709,120.699 117.404,120.699 117.333 C 120.699 117.157,120.697 117.158,119.556 117.760 M116.062 119.777 C 115.057 120.323,115.118 120.550,116.129 120.027 C 116.573 119.798,116.935 119.552,116.935 119.482 C 116.935 119.309,116.907 119.319,116.062 119.777 M283.602 119.475 C 283.602 119.549,283.965 119.798,284.409 120.027 C 284.852 120.256,285.215 120.383,285.215 120.310 C 285.215 120.236,284.852 119.987,284.409 119.758 C 283.965 119.529,283.602 119.402,283.602 119.475 M111.761 122.317 C 111.058 122.758,110.484 123.178,110.484 123.251 C 110.484 123.323,111.089 123.010,111.828 122.555 C 112.567 122.100,113.172 121.678,113.172 121.617 C 113.172 121.440,113.107 121.472,111.761 122.317 M290.271 124.059 C 290.407 124.355,290.586 124.778,290.668 125.000 C 290.797 125.348,290.821 125.346,290.839 124.984 C 290.851 124.754,290.672 124.330,290.442 124.043 C 290.031 123.530,290.028 123.530,290.271 124.059 M285.148 130.799 C 284.143 131.344,284.204 131.571,285.215 131.048 C 285.659 130.819,286.022 130.574,286.022 130.504 C 286.022 130.331,285.993 130.341,285.148 130.799 M118.011 132.379 C 118.011 132.453,118.374 132.701,118.817 132.930 C 119.261 133.159,119.624 133.287,119.624 133.213 C 119.624 133.139,119.261 132.891,118.817 132.661 C 118.374 132.432,118.011 132.305,118.011 132.379 M280.040 133.756 C 279.035 134.301,279.097 134.528,280.108 134.005 C 280.551 133.776,280.914 133.531,280.914 133.461 C 280.914 133.288,280.885 133.298,280.040 133.756 M121.237 134.260 C 121.237 134.334,121.599 134.582,122.043 134.812 C 122.487 135.041,122.849 135.168,122.849 135.094 C 122.849 135.021,122.487 134.772,122.043 134.543 C 121.599 134.314,121.237 134.186,121.237 134.260 M278.159 134.831 C 277.154 135.376,277.215 135.603,278.226 135.081 C 278.669 134.851,279.032 134.606,279.032 134.536 C 279.032 134.363,279.003 134.373,278.159 134.831 M123.253 135.404 C 123.401 135.556,124.126 136.020,124.866 136.433 C 125.605 136.847,126.089 137.060,125.941 136.908 C 125.793 136.755,125.067 136.292,124.328 135.879 C 123.589 135.465,123.105 135.251,123.253 135.404 M126.344 137.217 C 126.344 137.291,126.707 137.539,127.151 137.769 C 127.594 137.998,127.957 138.125,127.957 138.051 C 127.957 137.978,127.594 137.729,127.151 137.500 C 126.707 137.271,126.344 137.143,126.344 137.217 M273.051 137.788 C 272.046 138.333,272.107 138.560,273.118 138.038 C 273.562 137.808,273.925 137.563,273.925 137.493 C 273.925 137.320,273.896 137.330,273.051 137.788 M128.226 138.293 C 128.226 138.367,128.589 138.615,129.032 138.844 C 129.476 139.073,129.839 139.201,129.839 139.127 C 129.839 139.053,129.476 138.805,129.032 138.575 C 128.589 138.346,128.226 138.219,128.226 138.293 M131.586 140.243 C 131.734 140.395,132.460 140.858,133.199 141.272 C 133.938 141.686,134.422 141.899,134.274 141.747 C 134.126 141.594,133.401 141.131,132.661 140.717 C 131.922 140.304,131.438 140.090,131.586 140.243 M267.944 140.745 C 266.939 141.290,267.000 141.517,268.011 140.995 C 268.454 140.765,268.817 140.520,268.817 140.450 C 268.817 140.277,268.788 140.287,267.944 140.745 M136.559 143.131 C 136.559 143.205,136.922 143.453,137.366 143.683 C 137.809 143.912,138.172 144.039,138.172 143.965 C 138.172 143.891,137.809 143.643,137.366 143.414 C 136.922 143.185,136.559 143.057,136.559 143.131 M262.567 143.836 C 262.013 144.128,261.559 144.428,261.559 144.501 C 261.559 144.575,262.043 144.388,262.634 144.086 C 263.226 143.784,263.710 143.479,263.710 143.409 C 263.710 143.233,263.708 143.233,262.567 143.836 M260.417 145.046 C 259.412 145.591,259.473 145.819,260.484 145.296 C 260.927 145.066,261.290 144.821,261.290 144.751 C 261.290 144.578,261.261 144.588,260.417 145.046 M140.457 145.350 C 140.605 145.503,141.331 145.966,142.070 146.379 C 142.809 146.793,143.293 147.007,143.145 146.854 C 142.997 146.702,142.272 146.238,141.532 145.825 C 140.793 145.411,140.309 145.198,140.457 145.350 M257.191 146.928 C 256.186 147.473,256.247 147.700,257.258 147.177 C 257.702 146.948,258.065 146.703,258.065 146.633 C 258.065 146.460,258.036 146.470,257.191 146.928 M143.548 147.164 C 143.548 147.238,143.911 147.486,144.355 147.715 C 144.798 147.944,145.161 148.072,145.161 147.998 C 145.161 147.924,144.798 147.676,144.355 147.446 C 143.911 147.217,143.548 147.090,143.548 147.164 M255.309 148.003 C 254.304 148.548,254.365 148.775,255.376 148.253 C 255.820 148.023,256.183 147.778,256.183 147.708 C 256.183 147.535,256.154 147.545,255.309 148.003 M148.656 150.121 C 148.656 150.195,149.019 150.443,149.462 150.672 C 149.906 150.901,150.269 151.029,150.269 150.955 C 150.269 150.881,149.906 150.633,149.462 150.403 C 149.019 150.174,148.656 150.047,148.656 150.121 M151.882 152.002 C 151.882 152.076,152.245 152.324,152.688 152.554 C 153.132 152.783,153.495 152.910,153.495 152.836 C 153.495 152.762,153.132 152.514,152.688 152.285 C 152.245 152.056,151.882 151.928,151.882 152.002 M246.976 152.842 C 245.971 153.387,246.032 153.614,247.043 153.091 C 247.487 152.862,247.849 152.617,247.849 152.547 C 247.849 152.374,247.821 152.384,246.976 152.842 M153.763 153.078 C 153.763 153.152,154.126 153.400,154.570 153.629 C 155.013 153.858,155.376 153.986,155.376 153.912 C 155.376 153.838,155.013 153.590,154.570 153.360 C 154.126 153.131,153.763 153.004,153.763 153.078 M155.645 154.153 C 155.645 154.227,156.008 154.475,156.452 154.704 C 156.895 154.934,157.258 155.061,157.258 154.987 C 157.258 154.913,156.895 154.665,156.452 154.435 C 156.008 154.206,155.645 154.079,155.645 154.153 M243.212 154.992 C 242.207 155.538,242.269 155.765,243.280 155.242 C 243.723 155.013,244.086 154.768,244.086 154.697 C 244.086 154.524,244.057 154.534,243.212 154.992 M158.871 156.035 C 158.871 156.109,159.234 156.357,159.677 156.586 C 160.121 156.815,160.484 156.943,160.484 156.869 C 160.484 156.795,160.121 156.547,159.677 156.317 C 159.234 156.088,158.871 155.961,158.871 156.035 M239.987 156.874 C 238.982 157.419,239.043 157.646,240.054 157.124 C 240.497 156.894,240.860 156.649,240.860 156.579 C 240.860 156.406,240.831 156.416,239.987 156.874 M162.097 157.916 C 162.097 157.990,162.460 158.238,162.903 158.468 C 163.347 158.697,163.710 158.824,163.710 158.750 C 163.710 158.676,163.347 158.428,162.903 158.199 C 162.460 157.970,162.097 157.842,162.097 157.916 M236.761 158.756 C 235.756 159.301,235.817 159.528,236.828 159.005 C 237.272 158.776,237.634 158.531,237.634 158.461 C 237.634 158.288,237.606 158.298,236.761 158.756 M163.978 158.992 C 163.978 159.065,164.341 159.314,164.785 159.543 C 165.228 159.772,165.591 159.900,165.591 159.826 C 165.591 159.752,165.228 159.504,164.785 159.274 C 164.341 159.045,163.978 158.918,163.978 158.992 M167.204 160.873 C 167.204 160.947,167.567 161.195,168.011 161.425 C 168.454 161.654,168.817 161.781,168.817 161.707 C 168.817 161.633,168.454 161.385,168.011 161.156 C 167.567 160.927,167.204 160.799,167.204 160.873 M231.653 161.713 C 230.648 162.258,230.709 162.485,231.720 161.962 C 232.164 161.733,232.527 161.488,232.527 161.418 C 232.527 161.245,232.498 161.255,231.653 161.713 M170.430 162.755 C 170.430 162.829,170.793 163.077,171.237 163.306 C 171.680 163.536,172.043 163.663,172.043 163.589 C 172.043 163.515,171.680 163.267,171.237 163.038 C 170.793 162.808,170.430 162.681,170.430 162.755 M227.890 163.863 C 226.885 164.409,226.946 164.636,227.957 164.113 C 228.401 163.884,228.763 163.638,228.763 163.568 C 228.763 163.395,228.735 163.405,227.890 163.863 M172.849 164.099 C 172.849 164.173,173.212 164.421,173.656 164.651 C 174.099 164.880,174.462 165.007,174.462 164.933 C 174.462 164.859,174.099 164.611,173.656 164.382 C 173.212 164.152,172.849 164.025,172.849 164.099 M224.126 166.014 C 223.121 166.559,223.183 166.786,224.194 166.263 C 224.637 166.034,225.000 165.789,225.000 165.719 C 225.000 165.546,224.971 165.556,224.126 166.014 M220.901 167.896 C 219.896 168.441,219.957 168.668,220.968 168.145 C 221.411 167.916,221.774 167.671,221.774 167.601 C 221.774 167.428,221.745 167.437,220.901 167.896 M219.019 168.971 C 218.014 169.516,218.075 169.743,219.086 169.220 C 219.530 168.991,219.892 168.746,219.892 168.676 C 219.892 168.503,219.864 168.513,219.019 168.971 M181.183 168.938 C 181.183 169.012,181.546 169.260,181.989 169.489 C 182.433 169.719,182.796 169.846,182.796 169.772 C 182.796 169.698,182.433 169.450,181.989 169.220 C 181.546 168.991,181.183 168.864,181.183 168.938 M217.137 170.046 C 216.132 170.591,216.193 170.819,217.204 170.296 C 217.648 170.066,218.011 169.821,218.011 169.751 C 218.011 169.578,217.982 169.588,217.137 170.046 M213.911 171.928 C 212.906 172.473,212.968 172.700,213.978 172.177 C 214.422 171.948,214.785 171.703,214.785 171.633 C 214.785 171.460,214.756 171.470,213.911 171.928 M186.290 171.895 C 186.290 171.969,186.653 172.217,187.097 172.446 C 187.540 172.676,187.903 172.803,187.903 172.729 C 187.903 172.655,187.540 172.407,187.097 172.177 C 186.653 171.948,186.290 171.821,186.290 171.895 M189.516 173.777 C 189.516 173.850,189.879 174.099,190.323 174.328 C 190.766 174.557,191.129 174.685,191.129 174.611 C 191.129 174.537,190.766 174.289,190.323 174.059 C 189.879 173.830,189.516 173.703,189.516 173.777 M210.148 174.078 C 209.143 174.624,209.204 174.851,210.215 174.328 C 210.659 174.099,211.022 173.854,211.022 173.783 C 211.022 173.610,210.993 173.620,210.148 174.078 M191.398 174.852 C 191.398 174.926,191.761 175.174,192.204 175.403 C 192.648 175.633,193.011 175.760,193.011 175.686 C 193.011 175.612,192.648 175.364,192.204 175.134 C 191.761 174.905,191.398 174.778,191.398 174.852 M206.922 175.960 C 205.917 176.505,205.978 176.732,206.989 176.210 C 207.433 175.980,207.796 175.735,207.796 175.665 C 207.796 175.492,207.767 175.502,206.922 175.960 M193.280 175.927 C 193.280 176.001,193.642 176.249,194.086 176.478 C 194.530 176.708,194.892 176.835,194.892 176.761 C 194.892 176.687,194.530 176.439,194.086 176.210 C 193.642 175.980,193.280 175.853,193.280 175.927 M200.067 178.949 C 200.326 179.016,200.749 179.016,201.008 178.949 C 201.267 178.881,201.055 178.826,200.538 178.826 C 200.020 178.826,199.808 178.881,200.067 178.949 " stroke="none" fill="#646464" fill-rule="evenodd"></path></g></svg>